<?xml version="1.0" encoding="utf-8"?>
<!-- Generator: Adobe Illustrator 17.1.0, SVG Export Plug-In . SVG Version: 6.00 Build 0)  -->
<!DOCTYPE svg PUBLIC "-//W3C//DTD SVG 1.1//EN" "http://www.w3.org/Graphics/SVG/1.1/DTD/svg11.dtd">
<svg version="1.1" id="Layer_1" xmlns="http://www.w3.org/2000/svg" xmlns:xlink="http://www.w3.org/1999/xlink" x="0px" y="0px"
	 viewBox="0 0 144 144" enable-background="new 0 0 144 144" xml:space="preserve">
<g>
	<circle fill="#FFFFFF" cx="72" cy="72" r="71"/>
	<g>
		<path fill="#EBA321" d="M63.453,112.043c0-1.181,0.222-2.289,0.665-3.323c0.443-1.035,1.055-1.941,1.836-2.722
			c0.78-0.781,1.688-1.393,2.722-1.836c1.033-0.443,2.142-0.665,3.323-0.665s2.29,0.222,3.324,0.665
			c1.033,0.443,1.941,1.055,2.722,1.836c0.78,0.781,1.393,1.688,1.836,2.722c0.443,1.035,0.664,2.142,0.664,3.323
			c0,1.183-0.221,2.29-0.664,3.324c-0.443,1.035-1.056,1.941-1.836,2.722c-0.781,0.781-1.689,1.393-2.722,1.836
			c-1.035,0.443-2.143,0.664-3.324,0.664s-2.29-0.221-3.323-0.664c-1.035-0.443-1.942-1.055-2.722-1.836
			c-0.781-0.781-1.393-1.688-1.836-2.722C63.676,114.333,63.453,113.226,63.453,112.043z M66.619,91.151
			c-0.127-4.6-0.211-9.422-0.253-14.465s-0.137-10.372-0.284-15.986c-0.148-5.613-0.37-11.512-0.665-17.695
			c-0.295-6.183-0.738-12.714-1.329-19.594H80.23c-0.633,6.88-1.098,13.411-1.393,19.594c-0.295,6.183-0.517,12.082-0.664,17.695
			c-0.148,5.614-0.244,10.943-0.286,15.986s-0.105,9.865-0.19,14.465H66.619z"/>
	</g>
</g>
</svg>
