<?xml version="1.0" encoding="utf-8"?>
<!-- Generator: Adobe Illustrator 17.1.0, SVG Export Plug-In . SVG Version: 6.00 Build 0)  -->
<!DOCTYPE svg PUBLIC "-//W3C//DTD SVG 1.1//EN" "http://www.w3.org/Graphics/SVG/1.1/DTD/svg11.dtd">
<svg version="1.1" id="Layer_1" xmlns="http://www.w3.org/2000/svg" xmlns:xlink="http://www.w3.org/1999/xlink" x="0px" y="0px"
	 viewBox="0 0 100 30" enable-background="new 0 0 100 30" xml:space="preserve">
<g>
	<g>
		<path fill="#FFFFFF" d="M10.394,23.226C4.062,23.226,0,19.324,0,12.064C0,4.772,4.158,0.326,10.362,0.326
			c2.111,0,3.838,0.288,5.853,1.215l-1.023,2.495c-1.599-0.704-3.038-1.023-4.893-1.023c-4.254,0-6.94,3.582-6.94,8.763
			c0,5.789,2.91,8.731,7.452,8.731c1.695,0,3.294-0.448,4.669-1.055l0.832,2.495C14.52,22.746,12.441,23.226,10.394,23.226z"/>
		<path fill="#FFFFFF" d="M32.046,23.322c-7.004,0-10.426-4.35-10.426-11.354c0-6.972,3.742-11.738,10.65-11.738
			c6.844,0,10.458,4.51,10.458,11.322C42.728,18.652,39.082,23.322,32.046,23.322z M31.95,2.917c-5.149,0-6.972,3.998-6.972,8.635
			c0,5.277,1.823,9.083,7.388,9.083c5.245,0,7.004-4.03,7.004-8.667C39.37,6.819,37.483,2.917,31.95,2.917z"/>
		<path fill="#FFFFFF" d="M56.672,14.527H53.73v8.411h-3.134V0.614h6.109c0.96,0,1.887,0.064,2.751,0.256
			c3.134,0.704,5.053,3.006,5.053,6.364C64.508,11.776,61.598,14.527,56.672,14.527z M58.303,3.397
			c-0.608-0.16-1.279-0.224-1.887-0.224H53.73v8.795h3.166c2.782,0,4.254-1.823,4.254-4.478C61.15,5.38,60.158,3.844,58.303,3.397z"
			/>
		<path fill="#FFFFFF" d="M88.335,22.938h-6.62V0.614h7.036c7.004,0,10.81,4.094,10.81,10.842
			C99.561,19.068,95.435,22.938,88.335,22.938z M88.559,3.205h-3.71v17.143h3.678c5.149,0,7.708-2.814,7.708-8.731
			C96.234,6.787,93.964,3.205,88.559,3.205z"/>
	</g>
	<g>
		<path opacity="0.39" fill="#FFFFFF" d="M72.703,2.873c-7.408,0-13.414,6.006-13.414,13.414c0,6.907,5.221,12.593,11.932,13.33
			c-2.432-0.379-3.59-2.064-3.59-5.056c0-3.193,1.674-5.256,4.692-5.256c2.784,0,4.069,1.888,4.069,4.477
			c0,0.214-0.019,0.681-0.019,1.032h-6.814c0,2.103,0.759,3.426,3.115,3.426c1.246,0,2.2-0.175,3.212-0.448l0.214,1.382
			c-1.02,0.297-2.219,0.503-3.542,0.522c0.049,0.001,0.097,0.004,0.146,0.004c7.408,0,13.414-6.006,13.414-13.414
			C86.117,8.879,80.111,2.873,72.703,2.873z"/>
		<path fill="#FFFFFF" d="M72.362,29.701c0.066,0,0.13-0.003,0.195-0.004c-0.408-0.004-0.813-0.024-1.212-0.065
			C71.664,29.676,72.001,29.701,72.362,29.701z"/>
		<path fill="#FFFFFF" d="M75.886,27.793c-1.012,0.272-1.966,0.448-3.212,0.448c-2.356,0-3.115-1.324-3.115-3.426h6.814
			c0-0.35,0.019-0.817,0.019-1.032c0-2.589-1.285-4.477-4.069-4.477c-3.018,0-4.692,2.063-4.692,5.256
			c0,2.992,1.158,4.677,3.59,5.056c0.027,0.003,0.054,0.007,0.081,0.01c0.014,0.002,0.029,0.003,0.043,0.005
			c0.399,0.04,0.804,0.06,1.212,0.065c1.323-0.019,2.522-0.225,3.542-0.522L75.886,27.793z M72.206,20.687
			c1.557,0,2.414,1.11,2.356,2.823h-5.003C69.578,22.186,70.435,20.687,72.206,20.687z"/>
	</g>
</g>
</svg>
